# xmcd
#
# Track frame offsets:
#	150
#	17216
#	32478
#	47481
#	63154
#	81684
#	99065
#	116401
#	136406
#	149526
#	169883
#	191261
#	208793
#	225103
#	237244
#	250829
#	267098
#	286264
#	307129
#	330645
#	347317
#
# Disc length: 4830 seconds
#
# Revision: 0
# Processed by: cddbd v1.5PL3 Copyright (c) Steve Scherf et al.
# Submitted via: dBpowerAMP V4.0
#
DISCID=1f12dc15
DTITLE=mix - Country Girls\Boys
DYEAR=1900
DGENRE=
TTITLE0=Jessica Andrews -More To Me Than You
TTITLE1=Jo Dee Messina- Bye Bye
TTITLE2=Jo Dee Messina- I'm Alright
TTITLE3=Martina McBride- Independance Day
TTITLE4=Trisha Yearwood- How Do I Live
TTITLE5=Sheryl Crow- The First Cut Is The Deepest
TTITLE6=
TTITLE7=
TTITLE8=
TTITLE9=
TTITLE10=
TTITLE11=Joe Nichols- Broken Heartsville
TTITLE12=Kenny Rogers- The Gambler
TTITLE13=Oak Ridge Boys- Elvira
TTITLE14=Marty Stuart- Burn Me Down
TTITLE15=Neal Mcoy- The Shake
TTITLE16=Tim McGraw- Don't Talk The Girl
TTITLE17=Tim McGraw- She's My Kinda Rain
TTITLE18=Tim McGraw- Tinny Dancer
TTITLE19=Travis Tritt- Love Of A Woman
TTITLE20=Mark WIlls- I Do( Cherish You)
EXTD=
EXTT0=
EXTT1=
EXTT2=
EXTT3=
EXTT4=
EXTT5=
EXTT6=
EXTT7=
EXTT8=
EXTT9=
EXTT10=
EXTT11=
EXTT12=
EXTT13=
EXTT14=
EXTT15=
EXTT16=
EXTT17=
EXTT18=
EXTT19=
EXTT20=
PLAYORDER=
